<?xml version="1.0" encoding="UTF-8" standalone="no"?>
<!DOCTYPE svg PUBLIC "-//W3C//DTD SVG 1.1//EN" "http://www.w3.org/Graphics/SVG/1.1/DTD/svg11.dtd">
<svg width="100%" height="100%" viewBox="0 0 32 32" version="1.1" xmlns="http://www.w3.org/2000/svg" xmlns:xlink="http://www.w3.org/1999/xlink" xml:space="preserve" xmlns:serif="http://www.serif.com/" style="fill-rule:evenodd;clip-rule:evenodd;stroke-linecap:round;stroke-linejoin:round;stroke-miterlimit:1.5;">
    <path d="M7,25.5l4,-19" style="fill:none;stroke:#000;stroke-width:2px;"/>
    <path d="M25,16.5l-14,-10" style="fill:none;stroke:#000;stroke-width:2px;"/>
    <path d="M25,16.5l-18,9" style="fill:none;stroke:#000;stroke-width:2px;"/>
    <circle cx="11" cy="6.5" r="5" style="fill:#ebebeb;stroke:#000;stroke-width:2px;"/>
    <circle cx="7" cy="25.5" r="5" style="fill:#ebebeb;stroke:#000;stroke-width:2px;"/>
    <circle cx="25" cy="16.5" r="5" style="fill:#ebebeb;stroke:#000;stroke-width:2px;"/>
    <circle cx="11" cy="6.5" r="2" style="fill:#00a714;"/>
    <circle cx="7" cy="25.5" r="2" style="fill:#00a714;"/>
    <circle cx="25" cy="16.5" r="2" style="fill:#c30000;"/>
    <path d="M11.351,0.5c0.359,-0 0.649,0.29 0.649,0.649c0,1.153 -0,3.549 -0,4.702c-0,0.359 -0.29,0.649 -0.649,0.649c-0.225,0 -0.477,0 -0.702,0c-0.359,0 -0.649,-0.29 -0.649,-0.649c0,-1.153 -0,-3.549 0,-4.702c0,-0.359 0.29,-0.649 0.649,-0.649c0.225,0 0.477,0 0.702,0Z" style="fill:#00a714;"/>
    <path d="M7.351,14.5c0.172,-0 0.337,0.068 0.459,0.19c0.122,0.122 0.19,0.287 0.19,0.459c-0,1.951 -0,7.751 -0,9.702c-0,0.172 -0.068,0.337 -0.19,0.459c-0.122,0.122 -0.287,0.19 -0.459,0.19c-0.225,0 -0.477,0 -0.702,0c-0.172,0 -0.337,-0.068 -0.459,-0.19c-0.122,-0.122 -0.19,-0.287 -0.19,-0.459c0,-1.951 0,-7.751 0,-9.702c0,-0.172 0.068,-0.337 0.19,-0.459c0.122,-0.122 0.287,-0.19 0.459,-0.19c0.225,0 0.477,0 0.702,0Z" style="fill:#00a714;"/>
    <path d="M25.351,27.5c0.172,0 0.337,-0.068 0.459,-0.19c0.122,-0.122 0.19,-0.287 0.19,-0.459c0,-1.951 0,-7.751 0,-9.702c-0,-0.172 -0.068,-0.337 -0.19,-0.459c-0.122,-0.122 -0.287,-0.19 -0.459,-0.19c-0.225,0 -0.477,0 -0.702,0c-0.172,-0 -0.337,0.068 -0.459,0.19c-0.122,0.122 -0.19,0.287 -0.19,0.459c0,1.951 0,7.751 0,9.702c0,0.172 0.068,0.337 0.19,0.459c0.122,0.122 0.287,0.19 0.459,0.19c0.225,0 0.477,0 0.702,0Z" style="fill:#c30000;"/>
    <path d="M29.867,0.5l0,0.758l-3.789,8.841l-1.9,0l-4.045,-8.841l-0,-0.758l9.734,-0Zm-4.72,7.164c0.127,0.287 0.241,0.576 0.343,0.868c0.039,-0.239 0.133,-0.529 0.284,-0.868l2.434,-5.629l-5.51,-0l2.449,5.629Z" style="fill:#0068b9;fill-rule:nonzero;"/>
</svg>
